<svg xmlns="http://www.w3.org/2000/svg" viewBox="0 0 552 72" width="552" height="72"><g fill="#1A1A1A"><rect x="0" y="0" width="8" height="8"/><rect x="0" y="8" width="8" height="8"/><rect x="0" y="16" width="8" height="8"/><rect x="0" y="24" width="8" height="8"/><rect x="0" y="32" width="8" height="8"/><rect x="0" y="40" width="8" height="8"/><rect x="0" y="48" width="8" height="8"/><rect x="0" y="56" width="8" height="8"/><rect x="0" y="64" width="8" height="8"/><rect x="8" y="0" width="8" height="8"/><rect x="8" y="64" width="8" height="8"/><rect x="16" y="0" width="8" height="8"/><rect x="16" y="16" width="8" height="8"/><rect x="16" y="24" width="8" height="8"/><rect x="16" y="40" width="8" height="8"/><rect x="16" y="48" width="8" height="8"/><rect x="16" y="56" width="8" height="8"/><rect x="16" y="64" width="8" height="8"/><rect x="24" y="0" width="8" height="8"/><rect x="24" y="16" width="8" height="8"/><rect x="24" y="24" width="8" height="8"/><rect x="24" y="40" width="8" height="8"/><rect x="24" y="48" width="8" height="8"/><rect x="32" y="0" width="8" height="8"/><rect x="32" y="16" width="8" height="8"/><rect x="32" y="24" width="8" height="8"/><rect x="32" y="48" width="8" height="8"/><rect x="32" y="56" width="8" height="8"/><rect x="32" y="64" width="8" height="8"/><rect x="40" y="0" width="8" height="8"/><rect x="40" y="8" width="8" height="8"/><rect x="40" y="32" width="8" height="8"/><rect x="40" y="40" width="8" height="8"/><rect x="40" y="64" width="8" height="8"/><rect x="48" y="8" width="8" height="8"/><rect x="48" y="16" width="8" height="8"/><rect x="48" y="24" width="8" height="8"/><rect x="48" y="32" width="8" height="8"/><rect x="48" y="40" width="8" height="8"/><rect x="48" y="48" width="8" height="8"/><rect x="48" y="56" width="8" height="8"/><rect x="48" y="64" width="8" height="8"/><rect x="64" y="0" width="8" height="8"/><rect x="64" y="8" width="8" height="8"/><rect x="64" y="16" width="8" height="8"/><rect x="64" y="24" width="8" height="8"/><rect x="64" y="32" width="8" height="8"/><rect x="64" y="40" width="8" height="8"/><rect x="64" y="48" width="8" height="8"/><rect x="64" y="56" width="8" height="8"/><rect x="64" y="64" width="8" height="8"/><rect x="72" y="0" width="8" height="8"/><rect x="72" y="64" width="8" height="8"/><rect x="80" y="0" width="8" height="8"/><rect x="80" y="16" width="8" height="8"/><rect x="80" y="24" width="8" height="8"/><rect x="80" y="40" width="8" height="8"/><rect x="80" y="48" width="8" height="8"/><rect x="80" y="64" width="8" height="8"/><rect x="88" y="0" width="8" height="8"/><rect x="88" y="16" width="8" height="8"/><rect x="88" y="24" width="8" height="8"/><rect x="88" y="40" width="8" height="8"/><rect x="88" y="48" width="8" height="8"/><rect x="88" y="64" width="8" height="8"/><rect x="96" y="0" width="8" height="8"/><rect x="96" y="16" width="8" height="8"/><rect x="96" y="24" width="8" height="8"/><rect x="96" y="40" width="8" height="8"/><rect x="96" y="48" width="8" height="8"/><rect x="96" y="64" width="8" height="8"/><rect x="104" y="0" width="8" height="8"/><rect x="104" y="16" width="8" height="8"/><rect x="104" y="24" width="8" height="8"/><rect x="104" y="32" width="8" height="8"/><rect x="104" y="40" width="8" height="8"/><rect x="104" y="48" width="8" height="8"/><rect x="104" y="64" width="8" height="8"/><rect x="112" y="0" width="8" height="8"/><rect x="112" y="8" width="8" height="8"/><rect x="112" y="16" width="8" height="8"/><rect x="112" y="48" width="8" height="8"/><rect x="112" y="56" width="8" height="8"/><rect x="112" y="64" width="8" height="8"/><rect x="128" y="0" width="8" height="8"/><rect x="128" y="8" width="8" height="8"/><rect x="128" y="16" width="8" height="8"/><rect x="128" y="24" width="8" height="8"/><rect x="128" y="32" width="8" height="8"/><rect x="128" y="40" width="8" height="8"/><rect x="128" y="48" width="8" height="8"/><rect x="128" y="56" width="8" height="8"/><rect x="128" y="64" width="8" height="8"/><rect x="136" y="0" width="8" height="8"/><rect x="136" y="64" width="8" height="8"/><rect x="144" y="0" width="8" height="8"/><rect x="144" y="16" width="8" height="8"/><rect x="144" y="24" width="8" height="8"/><rect x="144" y="32" width="8" height="8"/><rect x="144" y="40" width="8" height="8"/><rect x="144" y="48" width="8" height="8"/><rect x="144" y="64" width="8" height="8"/><rect x="152" y="0" width="8" height="8"/><rect x="152" y="16" width="8" height="8"/><rect x="152" y="48" width="8" height="8"/><rect x="152" y="64" width="8" height="8"/><rect x="160" y="0" width="8" height="8"/><rect x="160" y="16" width="8" height="8"/><rect x="160" y="24" width="8" height="8"/><rect x="160" y="32" width="8" height="8"/><rect x="160" y="40" width="8" height="8"/><rect x="160" y="48" width="8" height="8"/><rect x="160" y="64" width="8" height="8"/><rect x="168" y="0" width="8" height="8"/><rect x="168" y="8" width="8" height="8"/><rect x="168" y="56" width="8" height="8"/><rect x="168" y="64" width="8" height="8"/><rect x="176" y="8" width="8" height="8"/><rect x="176" y="16" width="8" height="8"/><rect x="176" y="24" width="8" height="8"/><rect x="176" y="32" width="8" height="8"/><rect x="176" y="40" width="8" height="8"/><rect x="176" y="48" width="8" height="8"/><rect x="176" y="56" width="8" height="8"/><rect x="192" y="0" width="8" height="8"/><rect x="192" y="8" width="8" height="8"/><rect x="192" y="16" width="8" height="8"/><rect x="192" y="24" width="8" height="8"/><rect x="192" y="32" width="8" height="8"/><rect x="192" y="40" width="8" height="8"/><rect x="192" y="48" width="8" height="8"/><rect x="192" y="56" width="8" height="8"/><rect x="192" y="64" width="8" height="8"/><rect x="200" y="0" width="8" height="8"/><rect x="200" y="64" width="8" height="8"/><rect x="208" y="0" width="8" height="8"/><rect x="208" y="16" width="8" height="8"/><rect x="208" y="24" width="8" height="8"/><rect x="208" y="40" width="8" height="8"/><rect x="208" y="48" width="8" height="8"/><rect x="208" y="64" width="8" height="8"/><rect x="216" y="0" width="8" height="8"/><rect x="216" y="16" width="8" height="8"/><rect x="216" y="24" width="8" height="8"/><rect x="216" y="40" width="8" height="8"/><rect x="216" y="48" width="8" height="8"/><rect x="216" y="64" width="8" height="8"/><rect x="224" y="0" width="8" height="8"/><rect x="224" y="16" width="8" height="8"/><rect x="224" y="24" width="8" height="8"/><rect x="224" y="40" width="8" height="8"/><rect x="224" y="48" width="8" height="8"/><rect x="224" y="64" width="8" height="8"/><rect x="232" y="0" width="8" height="8"/><rect x="232" y="16" width="8" height="8"/><rect x="232" y="24" width="8" height="8"/><rect x="232" y="32" width="8" height="8"/><rect x="232" y="40" width="8" height="8"/><rect x="232" y="48" width="8" height="8"/><rect x="232" y="64" width="8" height="8"/><rect x="240" y="0" width="8" height="8"/><rect x="240" y="8" width="8" height="8"/><rect x="240" y="16" width="8" height="8"/><rect x="240" y="48" width="8" height="8"/><rect x="240" y="56" width="8" height="8"/><rect x="240" y="64" width="8" height="8"/><rect x="256" y="0" width="8" height="8"/><rect x="256" y="8" width="8" height="8"/><rect x="256" y="16" width="8" height="8"/><rect x="256" y="24" width="8" height="8"/><rect x="256" y="32" width="8" height="8"/><rect x="256" y="40" width="8" height="8"/><rect x="256" y="48" width="8" height="8"/><rect x="256" y="56" width="8" height="8"/><rect x="256" y="64" width="8" height="8"/><rect x="264" y="0" width="8" height="8"/><rect x="264" y="64" width="8" height="8"/><rect x="272" y="0" width="8" height="8"/><rect x="272" y="8" width="8" height="8"/><rect x="272" y="32" width="8" height="8"/><rect x="272" y="40" width="8" height="8"/><rect x="272" y="48" width="8" height="8"/><rect x="272" y="56" width="8" height="8"/><rect x="272" y="64" width="8" height="8"/><rect x="280" y="8" width="8" height="8"/><rect x="280" y="16" width="8" height="8"/><rect x="280" y="24" width="8" height="8"/><rect x="280" y="40" width="8" height="8"/><rect x="280" y="48" width="8" height="8"/><rect x="280" y="56" width="8" height="8"/><rect x="288" y="0" width="8" height="8"/><rect x="288" y="8" width="8" height="8"/><rect x="288" y="16" width="8" height="8"/><rect x="288" y="24" width="8" height="8"/><rect x="288" y="32" width="8" height="8"/><rect x="288" y="56" width="8" height="8"/><rect x="288" y="64" width="8" height="8"/><rect x="296" y="0" width="8" height="8"/><rect x="296" y="64" width="8" height="8"/><rect x="304" y="0" width="8" height="8"/><rect x="304" y="8" width="8" height="8"/><rect x="304" y="16" width="8" height="8"/><rect x="304" y="24" width="8" height="8"/><rect x="304" y="32" width="8" height="8"/><rect x="304" y="40" width="8" height="8"/><rect x="304" y="48" width="8" height="8"/><rect x="304" y="56" width="8" height="8"/><rect x="304" y="64" width="8" height="8"/><rect x="320" y="0" width="8" height="8"/><rect x="320" y="8" width="8" height="8"/><rect x="320" y="16" width="8" height="8"/><rect x="328" y="0" width="8" height="8"/><rect x="328" y="16" width="8" height="8"/><rect x="336" y="0" width="8" height="8"/><rect x="336" y="16" width="8" height="8"/><rect x="336" y="24" width="8" height="8"/><rect x="336" y="32" width="8" height="8"/><rect x="336" y="40" width="8" height="8"/><rect x="336" y="48" width="8" height="8"/><rect x="336" y="56" width="8" height="8"/><rect x="336" y="64" width="8" height="8"/><rect x="344" y="0" width="8" height="8"/><rect x="344" y="64" width="8" height="8"/><rect x="352" y="0" width="8" height="8"/><rect x="352" y="16" width="8" height="8"/><rect x="352" y="24" width="8" height="8"/><rect x="352" y="32" width="8" height="8"/><rect x="352" y="40" width="8" height="8"/><rect x="352" y="48" width="8" height="8"/><rect x="352" y="56" width="8" height="8"/><rect x="352" y="64" width="8" height="8"/><rect x="360" y="0" width="8" height="8"/><rect x="360" y="16" width="8" height="8"/><rect x="368" y="0" width="8" height="8"/><rect x="368" y="8" width="8" height="8"/><rect x="368" y="16" width="8" height="8"/><rect x="384" y="0" width="8" height="8"/><rect x="384" y="8" width="8" height="8"/><rect x="384" y="16" width="8" height="8"/><rect x="384" y="48" width="8" height="8"/><rect x="384" y="56" width="8" height="8"/><rect x="384" y="64" width="8" height="8"/><rect x="392" y="0" width="8" height="8"/><rect x="392" y="16" width="8" height="8"/><rect x="392" y="24" width="8" height="8"/><rect x="392" y="32" width="8" height="8"/><rect x="392" y="40" width="8" height="8"/><rect x="392" y="48" width="8" height="8"/><rect x="392" y="64" width="8" height="8"/><rect x="400" y="0" width="8" height="8"/><rect x="400" y="64" width="8" height="8"/><rect x="408" y="0" width="8" height="8"/><rect x="408" y="16" width="8" height="8"/><rect x="408" y="24" width="8" height="8"/><rect x="408" y="32" width="8" height="8"/><rect x="408" y="40" width="8" height="8"/><rect x="408" y="48" width="8" height="8"/><rect x="408" y="64" width="8" height="8"/><rect x="416" y="0" width="8" height="8"/><rect x="416" y="8" width="8" height="8"/><rect x="416" y="16" width="8" height="8"/><rect x="416" y="48" width="8" height="8"/><rect x="416" y="56" width="8" height="8"/><rect x="416" y="64" width="8" height="8"/><rect x="432" y="8" width="8" height="8"/><rect x="432" y="16" width="8" height="8"/><rect x="432" y="24" width="8" height="8"/><rect x="432" y="32" width="8" height="8"/><rect x="432" y="40" width="8" height="8"/><rect x="432" y="48" width="8" height="8"/><rect x="432" y="56" width="8" height="8"/><rect x="432" y="64" width="8" height="8"/><rect x="440" y="0" width="8" height="8"/><rect x="440" y="8" width="8" height="8"/><rect x="440" y="64" width="8" height="8"/><rect x="448" y="0" width="8" height="8"/><rect x="448" y="16" width="8" height="8"/><rect x="448" y="24" width="8" height="8"/><rect x="448" y="40" width="8" height="8"/><rect x="448" y="48" width="8" height="8"/><rect x="448" y="56" width="8" height="8"/><rect x="448" y="64" width="8" height="8"/><rect x="456" y="0" width="8" height="8"/><rect x="456" y="16" width="8" height="8"/><rect x="456" y="24" width="8" height="8"/><rect x="456" y="40" width="8" height="8"/><rect x="464" y="0" width="8" height="8"/><rect x="464" y="16" width="8" height="8"/><rect x="464" y="24" width="8" height="8"/><rect x="464" y="40" width="8" height="8"/><rect x="464" y="48" width="8" height="8"/><rect x="464" y="56" width="8" height="8"/><rect x="464" y="64" width="8" height="8"/><rect x="472" y="0" width="8" height="8"/><rect x="472" y="8" width="8" height="8"/><rect x="472" y="64" width="8" height="8"/><rect x="480" y="8" width="8" height="8"/><rect x="480" y="16" width="8" height="8"/><rect x="480" y="24" width="8" height="8"/><rect x="480" y="32" width="8" height="8"/><rect x="480" y="40" width="8" height="8"/><rect x="480" y="48" width="8" height="8"/><rect x="480" y="56" width="8" height="8"/><rect x="480" y="64" width="8" height="8"/><rect x="496" y="0" width="8" height="8"/><rect x="496" y="8" width="8" height="8"/><rect x="496" y="16" width="8" height="8"/><rect x="496" y="24" width="8" height="8"/><rect x="496" y="32" width="8" height="8"/><rect x="496" y="40" width="8" height="8"/><rect x="496" y="48" width="8" height="8"/><rect x="496" y="56" width="8" height="8"/><rect x="496" y="64" width="8" height="8"/><rect x="504" y="0" width="8" height="8"/><rect x="504" y="64" width="8" height="8"/><rect x="512" y="0" width="8" height="8"/><rect x="512" y="8" width="8" height="8"/><rect x="512" y="16" width="8" height="8"/><rect x="512" y="24" width="8" height="8"/><rect x="512" y="32" width="8" height="8"/><rect x="512" y="40" width="8" height="8"/><rect x="512" y="48" width="8" height="8"/><rect x="512" y="64" width="8" height="8"/><rect x="520" y="48" width="8" height="8"/><rect x="520" y="64" width="8" height="8"/><rect x="528" y="48" width="8" height="8"/><rect x="528" y="64" width="8" height="8"/><rect x="536" y="48" width="8" height="8"/><rect x="536" y="64" width="8" height="8"/><rect x="544" y="48" width="8" height="8"/><rect x="544" y="56" width="8" height="8"/><rect x="544" y="64" width="8" height="8"/></g><g fill="#FFFFFF"><rect x="8" y="8" width="8" height="8"/><rect x="8" y="16" width="8" height="8"/><rect x="8" y="24" width="8" height="8"/><rect x="8" y="32" width="8" height="8"/><rect x="8" y="40" width="8" height="8"/><rect x="8" y="48" width="8" height="8"/><rect x="8" y="56" width="8" height="8"/><rect x="16" y="8" width="8" height="8"/><rect x="16" y="32" width="8" height="8"/><rect x="24" y="8" width="8" height="8"/><rect x="24" y="32" width="8" height="8"/><rect x="32" y="8" width="8" height="8"/><rect x="32" y="32" width="8" height="8"/><rect x="32" y="40" width="8" height="8"/><rect x="40" y="16" width="8" height="8"/><rect x="40" y="24" width="8" height="8"/><rect x="40" y="48" width="8" height="8"/><rect x="40" y="56" width="8" height="8"/><rect x="72" y="8" width="8" height="8"/><rect x="72" y="16" width="8" height="8"/><rect x="72" y="24" width="8" height="8"/><rect x="72" y="32" width="8" height="8"/><rect x="72" y="40" width="8" height="8"/><rect x="72" y="48" width="8" height="8"/><rect x="72" y="56" width="8" height="8"/><rect x="80" y="8" width="8" height="8"/><rect x="80" y="32" width="8" height="8"/><rect x="80" y="56" width="8" height="8"/><rect x="88" y="8" width="8" height="8"/><rect x="88" y="32" width="8" height="8"/><rect x="88" y="56" width="8" height="8"/><rect x="96" y="8" width="8" height="8"/><rect x="96" y="32" width="8" height="8"/><rect x="96" y="56" width="8" height="8"/><rect x="104" y="8" width="8" height="8"/><rect x="104" y="56" width="8" height="8"/><rect x="136" y="8" width="8" height="8"/><rect x="136" y="16" width="8" height="8"/><rect x="136" y="24" width="8" height="8"/><rect x="136" y="32" width="8" height="8"/><rect x="136" y="40" width="8" height="8"/><rect x="136" y="48" width="8" height="8"/><rect x="136" y="56" width="8" height="8"/><rect x="144" y="8" width="8" height="8"/><rect x="144" y="56" width="8" height="8"/><rect x="152" y="8" width="8" height="8"/><rect x="152" y="56" width="8" height="8"/><rect x="160" y="8" width="8" height="8"/><rect x="160" y="56" width="8" height="8"/><rect x="168" y="16" width="8" height="8"/><rect x="168" y="24" width="8" height="8"/><rect x="168" y="32" width="8" height="8"/><rect x="168" y="40" width="8" height="8"/><rect x="168" y="48" width="8" height="8"/><rect x="200" y="8" width="8" height="8"/><rect x="200" y="16" width="8" height="8"/><rect x="200" y="24" width="8" height="8"/><rect x="200" y="32" width="8" height="8"/><rect x="200" y="40" width="8" height="8"/><rect x="200" y="48" width="8" height="8"/><rect x="200" y="56" width="8" height="8"/><rect x="208" y="8" width="8" height="8"/><rect x="208" y="32" width="8" height="8"/><rect x="208" y="56" width="8" height="8"/><rect x="216" y="8" width="8" height="8"/><rect x="216" y="32" width="8" height="8"/><rect x="216" y="56" width="8" height="8"/><rect x="224" y="8" width="8" height="8"/><rect x="224" y="32" width="8" height="8"/><rect x="224" y="56" width="8" height="8"/><rect x="232" y="8" width="8" height="8"/><rect x="232" y="56" width="8" height="8"/><rect x="264" y="8" width="8" height="8"/><rect x="264" y="16" width="8" height="8"/><rect x="264" y="24" width="8" height="8"/><rect x="264" y="32" width="8" height="8"/><rect x="264" y="40" width="8" height="8"/><rect x="264" y="48" width="8" height="8"/><rect x="264" y="56" width="8" height="8"/><rect x="272" y="16" width="8" height="8"/><rect x="272" y="24" width="8" height="8"/><rect x="280" y="32" width="8" height="8"/><rect x="288" y="40" width="8" height="8"/><rect x="288" y="48" width="8" height="8"/><rect x="296" y="8" width="8" height="8"/><rect x="296" y="16" width="8" height="8"/><rect x="296" y="24" width="8" height="8"/><rect x="296" y="32" width="8" height="8"/><rect x="296" y="40" width="8" height="8"/><rect x="296" y="48" width="8" height="8"/><rect x="296" y="56" width="8" height="8"/><rect x="328" y="8" width="8" height="8"/><rect x="336" y="8" width="8" height="8"/><rect x="344" y="8" width="8" height="8"/><rect x="344" y="16" width="8" height="8"/><rect x="344" y="24" width="8" height="8"/><rect x="344" y="32" width="8" height="8"/><rect x="344" y="40" width="8" height="8"/><rect x="344" y="48" width="8" height="8"/><rect x="344" y="56" width="8" height="8"/><rect x="352" y="8" width="8" height="8"/><rect x="360" y="8" width="8" height="8"/><rect x="392" y="8" width="8" height="8"/><rect x="392" y="56" width="8" height="8"/><rect x="400" y="8" width="8" height="8"/><rect x="400" y="16" width="8" height="8"/><rect x="400" y="24" width="8" height="8"/><rect x="400" y="32" width="8" height="8"/><rect x="400" y="40" width="8" height="8"/><rect x="400" y="48" width="8" height="8"/><rect x="400" y="56" width="8" height="8"/><rect x="408" y="8" width="8" height="8"/><rect x="408" y="56" width="8" height="8"/><rect x="440" y="16" width="8" height="8"/><rect x="440" y="24" width="8" height="8"/><rect x="440" y="32" width="8" height="8"/><rect x="440" y="40" width="8" height="8"/><rect x="440" y="48" width="8" height="8"/><rect x="440" y="56" width="8" height="8"/><rect x="448" y="8" width="8" height="8"/><rect x="448" y="32" width="8" height="8"/><rect x="456" y="8" width="8" height="8"/><rect x="456" y="32" width="8" height="8"/><rect x="464" y="8" width="8" height="8"/><rect x="464" y="32" width="8" height="8"/><rect x="472" y="16" width="8" height="8"/><rect x="472" y="24" width="8" height="8"/><rect x="472" y="32" width="8" height="8"/><rect x="472" y="40" width="8" height="8"/><rect x="472" y="48" width="8" height="8"/><rect x="472" y="56" width="8" height="8"/><rect x="504" y="8" width="8" height="8"/><rect x="504" y="16" width="8" height="8"/><rect x="504" y="24" width="8" height="8"/><rect x="504" y="32" width="8" height="8"/><rect x="504" y="40" width="8" height="8"/><rect x="504" y="48" width="8" height="8"/><rect x="504" y="56" width="8" height="8"/><rect x="512" y="56" width="8" height="8"/><rect x="520" y="56" width="8" height="8"/><rect x="528" y="56" width="8" height="8"/><rect x="536" y="56" width="8" height="8"/></g></svg>