<svg xmlns="http://www.w3.org/2000/svg" viewBox="0 0 476 56" width="476" height="56">
<g fill="#FFFFFF"><rect x="0" y="0" width="14" height="14"/><rect x="14" y="0" width="14" height="14"/><rect x="28" y="0" width="14" height="14"/><rect x="56" y="0" width="14" height="14"/><rect x="70" y="0" width="14" height="14"/><rect x="84" y="0" width="14" height="14"/><rect x="112" y="0" width="14" height="14"/><rect x="126" y="0" width="14" height="14"/><rect x="168" y="0" width="14" height="14"/><rect x="182" y="0" width="14" height="14"/><rect x="196" y="0" width="14" height="14"/><rect x="224" y="0" width="14" height="14"/><rect x="266" y="0" width="14" height="14"/><rect x="294" y="0" width="14" height="14"/><rect x="308" y="0" width="14" height="14"/><rect x="322" y="0" width="14" height="14"/><rect x="350" y="0" width="14" height="14"/><rect x="392" y="0" width="14" height="14"/><rect x="406" y="0" width="14" height="14"/><rect x="434" y="0" width="14" height="14"/><rect x="0" y="14" width="14" height="14"/><rect x="28" y="14" width="14" height="14"/><rect x="56" y="14" width="14" height="14"/><rect x="112" y="14" width="14" height="14"/><rect x="140" y="14" width="14" height="14"/><rect x="168" y="14" width="14" height="14"/><rect x="224" y="14" width="14" height="14"/><rect x="238" y="14" width="14" height="14"/><rect x="266" y="14" width="14" height="14"/><rect x="308" y="14" width="14" height="14"/><rect x="350" y="14" width="14" height="14"/><rect x="378" y="14" width="14" height="14"/><rect x="406" y="14" width="14" height="14"/><rect x="434" y="14" width="14" height="14"/><rect x="0" y="28" width="14" height="14"/><rect x="14" y="28" width="14" height="14"/><rect x="56" y="28" width="14" height="14"/><rect x="70" y="28" width="14" height="14"/><rect x="112" y="28" width="14" height="14"/><rect x="140" y="28" width="14" height="14"/><rect x="168" y="28" width="14" height="14"/><rect x="182" y="28" width="14" height="14"/><rect x="224" y="28" width="14" height="14"/><rect x="252" y="28" width="14" height="14"/><rect x="266" y="28" width="14" height="14"/><rect x="308" y="28" width="14" height="14"/><rect x="350" y="28" width="14" height="14"/><rect x="378" y="28" width="14" height="14"/><rect x="392" y="28" width="14" height="14"/><rect x="406" y="28" width="14" height="14"/><rect x="434" y="28" width="14" height="14"/><rect x="0" y="42" width="14" height="14"/><rect x="28" y="42" width="14" height="14"/><rect x="56" y="42" width="14" height="14"/><rect x="70" y="42" width="14" height="14"/><rect x="84" y="42" width="14" height="14"/><rect x="112" y="42" width="14" height="14"/><rect x="126" y="42" width="14" height="14"/><rect x="168" y="42" width="14" height="14"/><rect x="182" y="42" width="14" height="14"/><rect x="196" y="42" width="14" height="14"/><rect x="224" y="42" width="14" height="14"/><rect x="266" y="42" width="14" height="14"/><rect x="308" y="42" width="14" height="14"/><rect x="350" y="42" width="14" height="14"/><rect x="378" y="42" width="14" height="14"/><rect x="406" y="42" width="14" height="14"/><rect x="434" y="42" width="14" height="14"/><rect x="448" y="42" width="14" height="14"/><rect x="462" y="42" width="14" height="14"/></g>
</svg>